<svg xmlns="http://www.w3.org/2000/svg" xmlns:xlink="http://www.w3.org/1999/xlink" version="1.1" x="0px" y="0px"
     viewBox="0 0 100 125" style="enable-background:new 0 0 100 100;" xml:space="preserve"><path d="M85,48.7c-0.2,0-0.4-0.1-0.6,0c0-0.3,0-0.7,0-1c-0.1-1.7-0.1-3.4,0-5.1c0-0.3,0-0.6,0-0.9c0.3,0,0.6,0,0.9,0  c1.3,0,2.1-1,2.3-2.3c0.8-6.6-0.2-13.3-2.9-19.4c-1.3-2.9-2.9-5.4-5.7-7.1c-2.8-1.7-6.1-2.7-9.2-3.8c-6.7-2.4-13.5-3.2-20.6-2.3  c-3.1,0.4-6.9,0.5-9.6,2.3c-2.6,1.7-4.5,4.4-5.9,7.1c-2.5,4.7-4.5,9.7-6.3,14.8c-7.4,0.8-14.8,1.4-22.2,1.8  c-1.5,0.1-2.5,1.4-2.2,2.9c0.7,3.1,4.4,3,6.9,3.3c1.7,0.2,3.4,0.3,5.1,0.5c3.5,0.4,7,0.9,10.5,1.2c-0.3,1-0.4,2.1-0.6,3.1  c-0.3,1.9-0.4,3.8-0.4,5.7c-4.8-0.2-11.7,1.6-11.2,7.5c0.5,5.4,7.4,7.5,12,7.1c0.3,7.4,1.6,14.5,6.2,20.6c3.8,5,9.6,7.8,15.7,8.7  c3.5,0.5,7.1,0.5,10.6,0.1c3.4-0.4,7.1-0.7,10.4-1.9c5.9-2.2,9.8-7.7,12.5-13.2c2.1-4.3,3.3-8.8,3.8-13.4c2.6-0.1,5.2-0.3,7.6-1  c2.5-0.7,4.8-2.4,4.8-5.2C97.1,52.2,90.1,49.7,85,48.7z M21,59c-1-0.4-2.7-1.1-3.1-2.3c-0.8-2.9,5.2-2.9,7.3-2.8c0,1.8,0,3.7,0,5.5  C23.8,59.6,22.4,59.5,21,59z M81.8,26.9c0.2,0,0.4,0,0.5-0.1c0.1,0.3,0.1,0.5,0.2,0.8h-3.2c0-0.2,0-0.3,0-0.5c0-0.1,0-0.2,0-0.3  c0.1,0,0.2,0,0.3,0C80.4,26.8,81.1,26.8,81.8,26.9z M34.8,24.4c5.9,0.4,11.8,1,17.7,1.8c1.5,0.2,2.9,0.4,4.4,0.7  c0.1,0,0.3,0,0.4,0.1c0,0.6,0.1,1.2,0,1.7c0,1.8,0,3.5,0,5.3l-14.7-0.3c-0.2,0-0.4-0.1-0.7-0.1c-2-0.3-4-0.7-6-1.1  c-1.3-0.3-2.6-0.5-3.9-0.9C32.9,29.1,33.8,26.7,34.8,24.4z M77.9,73.5c-1.8,4.6-4.7,10.1-9.2,12.8c-2.5,1.5-5.5,1.9-8.4,2.3  c-3.1,0.4-6.3,0.7-9.5,0.5c-5.3-0.3-10.7-2-14.5-5.9c-5.3-5.6-6.5-13.1-6.7-20.8c3.8-0.7,4.2-4.8,4.9-8.2c0.8-4.2,1.6-8.4,2.3-12.7  c0-0.1,0-0.1,0-0.2c3.7,0.2,7.4,0.4,11.2,0.4c9.2,0,18.5-0.1,27.7-0.1c0,0,0,0,0,0c0.4,4.6,0.3,9.2,0.4,13.9  c0.1,3.3,1.2,6.6,3.9,8.4C79.7,67.2,79,70.4,77.9,73.5z M83,34.4c-6.1-0.1-12.1-0.2-18.2-0.3c0.1-3.3,0.3-6.6,0.2-9.8  c0-1.4-0.3-2.8-1.6-3.6c-1.4-0.9-3.5-1.1-5.1-1.4c-6.6-1.3-13.2-2.1-19.9-2.5c0.5-0.7,1-1.4,1.5-2.1c0.8-1,1.7-1.9,2.9-2.4  c1.3-0.5,2.8-0.6,4.2-0.8c6.2-0.9,12.4-0.9,18.4,0.9c2.8,0.9,5.6,1.9,8.3,3c2.7,1.1,4.7,2.3,6,4.9c0.3,0.6,0.6,1.3,0.9,1.9  c-1.8-0.2-4.1-0.5-5.2,1.1c-0.6,0.9-0.6,2-0.7,3c-0.1,1-0.1,2-0.1,3c0,0.7,0.4,1.4,1,1.8c0.4,0.6,1,0.9,1.8,0.9h5.6  c0.1,0.8,0.1,1.5,0.1,2.3C83.2,34.4,83.1,34.4,83,34.4z M89,59.8c-1.4,0.2-2.8,0.4-4.2,0.4c0-0.5,0-1,0-1.4c0-1.9-0.1-3.7-0.2-5.6  c1.7,0.3,3.3,0.7,4.8,1.5c1.2,0.7,2.9,2,3,3.5C92.5,59.6,90,59.7,89,59.8z M41.8,59.2c-2.9,0-2.9-4.5,0-4.5  C44.7,54.6,44.7,59.2,41.8,59.2z M71.8,59.9c-2.9,0-2.9-4.5,0-4.5C74.7,55.3,74.7,59.9,71.8,59.9z M60.9,52.4  c-0.1,7.2-0.1,14.3-0.2,21.5c0,1.2-1,2.3-2.3,2.3c-3.2-0.1-6.4-0.4-9.6-0.8c-1.2-0.2-2.3-0.9-2.3-2.3c0-1.1,1-2.4,2.3-2.3  c2.5,0.3,4.9,0.5,7.4,0.7c0.1-6.4,0.1-12.8,0.2-19.1C56.4,49.5,60.9,49.5,60.9,52.4z M70.3,77.8c-9.6,6.3-22.6,6.3-32.3,0.1  c-2.4-1.6-0.2-5.5,2.3-3.9c8.4,5.4,19.4,5.4,27.7-0.1C70.5,72.2,72.7,76.2,70.3,77.8z"/></svg>