<svg xmlns="http://www.w3.org/2000/svg" xmlns:xlink="http://www.w3.org/1999/xlink" version="1.1" x="0px" y="0px"
     viewBox="0 0 100 125" style="enable-background:new 0 0 100 100;" xml:space="preserve">
<path d="M87.8,26.1c-3.8-0.3-7.6-0.6-11.4-1c2.5-0.6,5-1.3,7.5-2.1c4.5-1.5,2.6-7.6-1.9-6.9C76.4,17,70.9,18,65.3,19  c0.5-0.4,1-0.8,1.5-1.1c3.7-2.7,0.2-8.9-3.6-6.2c-2.8,2-5.7,4.1-8.5,6.1c-1.2,0.8-2.4,1.6-3.5,2.5c1.4-4,2.8-7.9,4.4-11.8  c1.5-3.8-4.7-6.3-6.6-2.8c-2.1,4.1-3.4,8.5-5,12.7c-0.7-3-1.1-6.1-1.4-9.2c-0.1-0.9-0.1-1.9-0.2-2.8c-0.4-4.6-7.4-4.7-7.2,0  c0.1,1.1,0.1,2.1,0.2,3.2c0.2,3.1,0.4,6.2,0.5,9.2c-2.2-1.4-4.4-2.6-6.8-3.8c-2.9-1.4-7.2,1.7-4.9,4.9c0.7,1,1.5,2,2.3,3  c-0.2,0.7-0.2,1.5,0.2,2.3c-1.3-0.2-2.7-0.5-3.9-0.7c0,0,0,0-0.1,0c0,0,0,0,0,0c-0.3,0-0.6-0.1-1-0.1c-3.3-0.4-4.1,3-2.9,5.3  c-0.5,1.9,0.5,4.3,2.9,4.7c-1.4,0.6-2.7,1.3-4.1,1.9c-2.7,1.3-2.1,4.5-0.1,5.9c-0.5,1.4-1.1,2.8-1.6,4.3C11,45.4,5.1,47.4,5,53.5  C5,58.4,8.9,61.2,13,62.8c-0.3,6.4,0.8,12.6,4,17.7C23.9,91.6,39,97.7,51.8,97c10.9-0.6,18.6-10.9,22.7-20.9c3,0.6,5.8-1.6,6.8-4.4  c1-2.6,0.3-5.6-1.6-7.6c-0.5-0.6-1.3-0.9-2-1c0.3-5.3-0.6-10.7-0.9-16.1c0-0.6-0.1-1.2-0.1-1.8c0.1,0,0.1,0,0.2,0  c2.5,0.6,4.2-1.3,4.5-3.3c0.5,0,0.9-0.1,1.4-0.1c3.8-0.4,5.2-6,1-7.1c-0.7-0.2-1.4-0.3-2.1-0.5c2.4-0.3,4.8-0.7,7.2-1  C93,32.6,91.6,26.5,87.8,26.1z M69.7,68.1c-1.3,4.7-3.8,9-6.5,13c-3.9,5.6-7.5,9-14.6,8.7c-9.2-0.3-20.2-5-25.4-13  c-6-9.2-2.2-24.7,1.9-33.8c0.2-0.5,0.3-1,0.3-1.4c2.5-0.8,4.9-1.7,7.3-2.8c1.4,0.6,3.1,0.5,4.3-0.6c0.7-0.6,1.1-1.2,1.6-2  c0.3-0.5,0.5-0.9,0.6-1.3c9.5,5,20.8,7.8,30.8,10.5c0.1,3,0,6.2,0.1,7.3C70.6,58.1,71.1,63,69.7,68.1z"/>
    <path d="M34.9,51.3c-0.6-0.6-1.6-1.1-2.5-1.1c-0.1,0-0.1,0-0.2-0.1c-1.9-0.4-3.9,0.6-4.4,2.5c-0.3,1-0.5,2.2-0.5,3.3  c0.1,2.1,1.6,4.1,3.9,4.1c1.8,0,3.3-1.1,3.9-2.7c0.5-1.2,0.6-2.4,0.8-3.6C36,53,35.4,51.8,34.9,51.3z"/>
    <path d="M67.3,58.8c-0.4-1.9-2.7-3.1-4.4-2.5c-0.3,0.1-0.5,0.2-0.8,0.4c-0.7,0.3-1.3,0.8-1.7,1.5c-0.4,0.8-0.7,1.6-0.6,2.5  c0.1,1.2,0.5,2.1,1.4,2.8c0.8,0.6,2.1,1,3.1,0.6c1-0.4,2-1,2.6-2C67.4,61,67.5,60,67.3,58.8z"/>
    <path d="M48.4,52.3c-1.3,4.2-0.5,9.2-2,13.4c-1.8,0-3.9-0.5-5.4-0.7c-4.5-0.7-6.5,6.2-1.9,6.9c3.9,0.6,11.1,2.6,13.3-1.9  c2.4-5,1.4-10.7,3-15.8C56.8,49.8,49.9,47.9,48.4,52.3z"/>
    <path d="M44.6,73.6c-3.9-0.9-7.8-1.8-11.7-2.6c-4.5-1-6.4,5.9-1.9,6.9c3.9,0.9,7.8,1.8,11.7,2.6C47.2,81.6,49.2,74.6,44.6,73.6z"/></svg>